<svg xmlns="http://www.w3.org/2000/svg" width="48" height="48" viewBox="0 0 48 48" fill="none"><g clip-path="url(#clip0_1731_730)"><path d="M30.7792 12.0488H17.2228C14.3711 12.0488 12.0508 14.3691 12.0508 17.2208V30.7772C12.0508 33.6289 14.3711 35.9492 17.2228 35.9492H30.7792C33.6312 35.9492 35.9512 33.6289 35.9512 30.7772V17.2208C35.9512 14.3691 33.6312 12.0488 30.7792 12.0488ZM33.1387 30.7772C33.1387 32.078 32.0803 33.1367 30.7792 33.1367H17.2228C15.922 33.1367 14.8633 32.078 14.8633 30.7772V17.2208C14.8633 15.92 15.922 14.8613 17.2228 14.8613H30.7792C32.0803 14.8613 33.1387 15.92 33.1387 17.2208V30.7772Z" fill="#E0BF23"></path><path d="M46.5938 19.0049C47.3705 19.0049 48 18.375 48 17.5986C48 16.8219 47.3705 16.1924 46.5938 16.1924H41.9751V12.6031H46.5938C47.3705 12.6031 48 11.9736 48 11.1969C48 10.4202 47.3705 9.79065 46.5938 9.79065H41.7792C41.2917 8.06799 39.9324 6.70862 38.2097 6.22083V1.40625C38.2097 0.629517 37.5798 0 36.8035 0C36.0267 0 35.3972 0.629517 35.3972 1.40625V6.0249H31.808V1.40625C31.808 0.629517 31.1785 0 30.4017 0C29.6254 0 28.9955 0.629517 28.9955 1.40625V6.0249H25.4066V1.40625C25.4066 0.629517 24.7767 0 24.0004 0C23.2236 0 22.5941 0.629517 22.5941 1.40625V6.0249H19.0049V1.40625C19.0049 0.629517 18.3754 0 17.5986 0C16.8223 0 16.1924 0.629517 16.1924 1.40625V6.0249H12.6031V1.40625C12.6031 0.629517 11.9736 0 11.1969 0C10.4205 0 9.79065 0.629517 9.79065 1.40625V6.22083C8.06799 6.70862 6.70862 8.06763 6.22119 9.79065H1.40625C0.629517 9.79065 0 10.4202 0 11.1969C0 11.9736 0.629517 12.6031 1.40625 12.6031H6.02527V16.192H1.40625C0.629517 16.192 0 16.8219 0 17.5983C0 18.375 0.629517 19.0045 1.40625 19.0045H6.02527V22.5938H1.40625C0.629517 22.5938 0 23.2233 0 24C0 24.7767 0.629517 25.4062 1.40625 25.4062H6.02527V28.9951H1.40625C0.629517 28.9951 0 29.625 0 30.4014C0 31.1781 0.629517 31.8076 1.40625 31.8076H6.02527V35.3969H1.40625C0.629517 35.3969 0 36.0264 0 36.8031C0 37.5798 0.629517 38.2094 1.40625 38.2094H6.22083C6.70862 39.932 8.06799 41.2914 9.79065 41.7792V46.5938C9.79065 47.3705 10.4202 48 11.1969 48C11.9736 48 12.6031 47.3705 12.6031 46.5938V41.9751H16.1924V46.5938C16.1924 47.3705 16.8219 48 17.5986 48C18.3754 48 19.0049 47.3705 19.0049 46.5938V41.9751H22.5938V46.5938C22.5938 47.3705 23.2236 48 24 48C24.7767 48 25.4062 47.3705 25.4062 46.5938V41.9751H28.9955V46.5938C28.9955 47.3705 29.625 48 30.4017 48C31.1781 48 31.808 47.3705 31.808 46.5938V41.9751H35.3969V46.5938C35.3969 47.3705 36.0264 48 36.8031 48C37.5798 48 38.2094 47.3705 38.2094 46.5938V41.7792C39.932 41.2914 41.2914 39.9324 41.7792 38.2094H46.5938C47.3705 38.2094 48 37.5798 48 36.8031C48 36.0264 47.3705 35.3969 46.5938 35.3969H41.9751V31.808H46.5938C47.3705 31.808 48 31.1781 48 30.4017C48 29.625 47.3705 28.9955 46.5938 28.9955H41.9751V25.4062H46.5938C47.3705 25.4062 48 24.7767 48 24C48 23.2233 47.3705 22.5938 46.5938 22.5938H41.9751V19.0049H46.5938ZM36.8031 39.1626H11.1969C9.89612 39.1626 8.83777 38.1039 8.83777 36.8031V11.1969C8.83777 9.89612 9.89612 8.8374 11.1969 8.8374H36.8035C38.1042 8.8374 39.1626 9.89612 39.1626 11.1969V36.8031C39.1626 38.1039 38.1042 39.1626 36.8031 39.1626Z" fill="#E8E8E8"></path></g><defs><clipPath id="clip0_1731_730"><rect width="48" height="48" fill="white"></rect></clipPath></defs></svg>