<svg xmlns="http://www.w3.org/2000/svg" width="48" height="48" viewBox="0 0 48 48" fill="none"><path d="M23.9727 34V39.0207" stroke="#E0BF23" stroke-width="1.7704" stroke-miterlimit="10"></path><path d="M23.974 43.9998C25.349 43.9998 26.4636 42.8851 26.4636 41.5101C26.4636 40.1352 25.349 39.0205 23.974 39.0205C22.599 39.0205 21.4844 40.1352 21.4844 41.5101C21.4844 42.8851 22.599 43.9998 23.974 43.9998Z" stroke="#E0BF23" stroke-width="1.7704" stroke-miterlimit="10"></path><path d="M9.0365 43.9998C10.4115 43.9998 11.5261 42.8851 11.5261 41.5101C11.5261 40.1352 10.4115 39.0205 9.0365 39.0205C7.66152 39.0205 6.54688 40.1352 6.54688 41.5101C6.54688 42.8851 7.66152 43.9998 9.0365 43.9998Z" stroke="#E0BF23" stroke-width="1.7704" stroke-miterlimit="10"></path><path d="M11.5234 41.5104H16.5027V34" stroke="#E0BF23" stroke-width="1.7704" stroke-miterlimit="10"></path><path d="M38.9662 43.9998C40.3412 43.9998 41.4558 42.8851 41.4558 41.5101C41.4558 40.1352 40.3412 39.0205 38.9662 39.0205C37.5912 39.0205 36.4766 40.1352 36.4766 41.5101C36.4766 42.8851 37.5912 43.9998 38.9662 43.9998Z" stroke="#E0BF23" stroke-width="1.7704" stroke-miterlimit="10"></path><path d="M36.4753 41.5104H31.4961V34" stroke="#E0BF23" stroke-width="1.7704" stroke-miterlimit="10"></path><path d="M41.509 14H6.48828V19H41.509V14Z" stroke="white" stroke-width="1.7704" stroke-miterlimit="10"></path><path d="M44 4H4V14H44V4Z" stroke="white" stroke-width="1.7704" stroke-miterlimit="10"></path><path d="M24 4V10.2448" stroke="white" stroke-width="1.7704" stroke-miterlimit="10"></path><path d="M19 4V10.2448" stroke="white" stroke-width="1.7704" stroke-miterlimit="10"></path><path d="M14 4V10.2448" stroke="white" stroke-width="1.7704" stroke-miterlimit="10"></path><path d="M9 4V10.2448" stroke="white" stroke-width="1.7704" stroke-miterlimit="10"></path><path d="M29 4V10.2448" stroke="white" stroke-width="1.7704" stroke-miterlimit="10"></path><path d="M34 4V10.2448" stroke="white" stroke-width="1.7704" stroke-miterlimit="10"></path><path d="M39 4V10.2448" stroke="white" stroke-width="1.7704" stroke-miterlimit="10"></path><path d="M44 19H4V29H44V19Z" stroke="white" stroke-width="1.7704" stroke-miterlimit="10"></path><path d="M24 19V25.2448" stroke="white" stroke-width="1.7704" stroke-miterlimit="10"></path><path d="M19 19V25.2448" stroke="white" stroke-width="1.7704" stroke-miterlimit="10"></path><path d="M14 19V25.2448" stroke="white" stroke-width="1.7704" stroke-miterlimit="10"></path><path d="M9 19V25.2448" stroke="white" stroke-width="1.7704" stroke-miterlimit="10"></path><path d="M29 19V25.2448" stroke="white" stroke-width="1.7704" stroke-miterlimit="10"></path><path d="M34 19V25.2448" stroke="white" stroke-width="1.7704" stroke-miterlimit="10"></path><path d="M39 19V25.2448" stroke="white" stroke-width="1.7704" stroke-miterlimit="10"></path><path d="M41.509 29H6.48828V34H41.509V29Z" stroke="white" stroke-width="1.7704" stroke-miterlimit="10"></path></svg>