<svg xmlns="http://www.w3.org/2000/svg" width="48" height="48" viewBox="0 0 48 48" fill="none"><g clip-path="url(#clip0_1941_403)"><mask id="mask0_1941_403" style="mask-type:luminance" maskUnits="userSpaceOnUse" x="0" y="0" width="48" height="48"><path d="M0 3.8147e-06H48V48H0V3.8147e-06Z" fill="white"></path></mask><g mask="url(#mask0_1941_403)"><path d="M40.5672 36.8027C40.5672 38.8738 38.8728 40.5684 36.8017 40.5684H11.1953C9.12413 40.5684 7.42969 38.8738 7.42969 36.8027V11.1965C7.42969 9.12536 9.12413 7.43083 11.1953 7.43083H36.8017C38.8728 7.43083 40.5672 9.12536 40.5672 11.1965V36.8027Z" stroke="white" stroke-width="2.2" stroke-miterlimit="10" stroke-linecap="round" stroke-linejoin="round"></path><path d="M34.5448 30.7783C34.5448 32.8494 32.8502 34.5439 30.779 34.5439H17.2228C15.1517 34.5439 13.457 32.8494 13.457 30.7783V17.222C13.457 15.151 15.1517 13.4564 17.2228 13.4564H30.779C32.8502 13.4564 34.5448 15.151 34.5448 17.222V30.7783Z" stroke="#E0BF23" stroke-width="2.2" stroke-miterlimit="10" stroke-linecap="round" stroke-linejoin="round"></path><path d="M11.1953 7.43164V1.40661" stroke="white" stroke-width="2.2" stroke-miterlimit="10" stroke-linecap="round" stroke-linejoin="round"></path><path d="M11.1953 40.5687V46.5938" stroke="white" stroke-width="2.2" stroke-miterlimit="10" stroke-linecap="round" stroke-linejoin="round"></path><path d="M17.5977 7.43164V1.40661" stroke="white" stroke-width="2.2" stroke-miterlimit="10" stroke-linecap="round" stroke-linejoin="round"></path><path d="M17.5977 40.5687V46.5938" stroke="white" stroke-width="2.2" stroke-miterlimit="10" stroke-linecap="round" stroke-linejoin="round"></path><path d="M24 7.43164V1.40661" stroke="white" stroke-width="2.2" stroke-miterlimit="10" stroke-linecap="round" stroke-linejoin="round"></path><path d="M24 40.5687V46.5938" stroke="white" stroke-width="2.2" stroke-miterlimit="10" stroke-linecap="round" stroke-linejoin="round"></path><path d="M30.4023 7.43164V1.40661" stroke="white" stroke-width="2.2" stroke-miterlimit="10" stroke-linecap="round" stroke-linejoin="round"></path><path d="M30.4023 40.5687V46.5938" stroke="white" stroke-width="2.2" stroke-miterlimit="10" stroke-linecap="round" stroke-linejoin="round"></path><path d="M36.8047 40.5687V46.5938" stroke="white" stroke-width="2.2" stroke-miterlimit="10" stroke-linecap="round" stroke-linejoin="round"></path><path d="M36.8047 7.43164V1.40661" stroke="white" stroke-width="2.2" stroke-miterlimit="10" stroke-linecap="round" stroke-linejoin="round"></path><path d="M40.5703 11.1973H46.5952" stroke="white" stroke-width="2.2" stroke-miterlimit="10" stroke-linecap="round" stroke-linejoin="round"></path><path d="M7.43137 11.1973H1.40625" stroke="white" stroke-width="2.2" stroke-miterlimit="10" stroke-linecap="round" stroke-linejoin="round"></path><path d="M40.5703 17.5986H46.5952" stroke="white" stroke-width="2.2" stroke-miterlimit="10" stroke-linecap="round" stroke-linejoin="round"></path><path d="M7.43137 17.5986H1.40625" stroke="white" stroke-width="2.2" stroke-miterlimit="10" stroke-linecap="round" stroke-linejoin="round"></path><path d="M40.5703 24H46.5952" stroke="white" stroke-width="2.2" stroke-miterlimit="10" stroke-linecap="round" stroke-linejoin="round"></path><path d="M7.43137 24H1.40625" stroke="white" stroke-width="2.2" stroke-miterlimit="10" stroke-linecap="round" stroke-linejoin="round"></path><path d="M40.5703 30.4014H46.5952" stroke="white" stroke-width="2.2" stroke-miterlimit="10" stroke-linecap="round" stroke-linejoin="round"></path><path d="M7.43137 30.4014H1.40625" stroke="white" stroke-width="2.2" stroke-miterlimit="10" stroke-linecap="round" stroke-linejoin="round"></path><path d="M7.43137 36.8027H1.40625" stroke="white" stroke-width="2.2" stroke-miterlimit="10" stroke-linecap="round" stroke-linejoin="round"></path><path d="M40.5703 36.8027H46.5952" stroke="white" stroke-width="2.2" stroke-miterlimit="10" stroke-linecap="round" stroke-linejoin="round"></path></g></g><defs><clipPath id="clip0_1941_403"><rect width="48" height="48" fill="white"></rect></clipPath></defs></svg>